# Blender v2.79 (sub 0) OBJ File: ''
# www.blender.org
mtllib untitled.mtl
o Cone.001_Cone.003
v 0.000000 -0.500000 -0.140000
v 0.027313 -0.500000 -0.137310
v 0.053576 -0.500000 -0.129343
v 0.077780 -0.500000 -0.116406
v 0.000000 -0.800000 0.000000
v 0.098995 -0.500000 -0.098995
v 0.116406 -0.500000 -0.077780
v 0.129343 -0.500000 -0.053576
v 0.137310 -0.500000 -0.027313
v 0.140000 -0.500000 -0.000000
v 0.137310 -0.500000 0.027313
v 0.129343 -0.500000 0.053576
v 0.116406 -0.500000 0.077780
v 0.098995 -0.500000 0.098995
v 0.077780 -0.500000 0.116406
v 0.053576 -0.500000 0.129343
v 0.027313 -0.500000 0.137310
v -0.000000 -0.500000 0.140000
v -0.027313 -0.500000 0.137310
v -0.053576 -0.500000 0.129343
v -0.077780 -0.500000 0.116406
v -0.098995 -0.500000 0.098995
v -0.116406 -0.500000 0.077780
v -0.129343 -0.500000 0.053576
v -0.137310 -0.500000 0.027313
v -0.140000 -0.500000 -0.000000
v -0.137310 -0.500000 -0.027313
v -0.129343 -0.500000 -0.053576
v -0.116406 -0.500000 -0.077780
v -0.098995 -0.500000 -0.098995
v -0.077780 -0.500000 -0.116406
v -0.053575 -0.500000 -0.129343
v -0.027312 -0.500000 -0.137310
vn 0.0889 -0.4212 -0.9026
vn 0.2633 -0.4212 -0.8679
vn 0.4275 -0.4212 -0.7999
vn 0.5754 -0.4212 -0.7011
vn 0.7011 -0.4212 -0.5754
vn 0.7999 -0.4212 -0.4275
vn 0.8679 -0.4212 -0.2633
vn 0.9026 -0.4212 -0.0889
vn 0.9026 -0.4212 0.0889
vn 0.8679 -0.4212 0.2633
vn 0.7999 -0.4212 0.4275
vn 0.7011 -0.4212 0.5754
vn 0.5754 -0.4212 0.7011
vn 0.4275 -0.4212 0.7999
vn 0.2633 -0.4212 0.8679
vn 0.0889 -0.4212 0.9026
vn -0.0889 -0.4212 0.9026
vn -0.2633 -0.4212 0.8679
vn -0.4275 -0.4212 0.7999
vn -0.5754 -0.4212 0.7011
vn -0.7011 -0.4212 0.5754
vn -0.7999 -0.4212 0.4275
vn -0.8679 -0.4212 0.2633
vn -0.9026 -0.4212 0.0889
vn -0.9026 -0.4212 -0.0889
vn -0.8679 -0.4212 -0.2633
vn -0.7999 -0.4212 -0.4275
vn -0.7011 -0.4212 -0.5754
vn -0.5754 -0.4212 -0.7011
vn -0.4275 -0.4212 -0.7999
vn 0.0000 1.0000 0.0000
vn -0.2633 -0.4212 -0.8679
vn -0.0889 -0.4212 -0.9026
usemtl None
s off
f 5//1 1//1 2//1
f 5//2 2//2 3//2
f 5//3 3//3 4//3
f 5//4 4//4 6//4
f 5//5 6//5 7//5
f 5//6 7//6 8//6
f 5//7 8//7 9//7
f 5//8 9//8 10//8
f 5//9 10//9 11//9
f 5//10 11//10 12//10
f 5//11 12//11 13//11
f 5//12 13//12 14//12
f 5//13 14//13 15//13
f 5//14 15//14 16//14
f 5//15 16//15 17//15
f 5//16 17//16 18//16
f 5//17 18//17 19//17
f 5//18 19//18 20//18
f 5//19 20//19 21//19
f 5//20 21//20 22//20
f 5//21 22//21 23//21
f 5//22 23//22 24//22
f 5//23 24//23 25//23
f 5//24 25//24 26//24
f 5//25 26//25 27//25
f 5//26 27//26 28//26
f 5//27 28//27 29//27
f 5//28 29//28 30//28
f 5//29 30//29 31//29
f 5//30 31//30 32//30
f 2//31 1//31 33//31 32//31 31//31 30//31 29//31 28//31 27//31 26//31 25//31 24//31 23//31 22//31 21//31 20//31 19//31 18//31 17//31 16//31 15//31 14//31 13//31 12//31 11//31 10//31 9//31 8//31 7//31 6//31 4//31 3//31
f 5//32 32//32 33//32
f 5//33 33//33 1//33
o Cone_Cone.002
v 0.000000 0.500000 -0.140000
v 0.027313 0.500000 -0.137310
v 0.053576 0.500000 -0.129343
v 0.077780 0.500000 -0.116406
v 0.098995 0.500000 -0.098995
v 0.116406 0.500000 -0.077780
v 0.129343 0.500000 -0.053576
v 0.137310 0.500000 -0.027313
v 0.140000 0.500000 -0.000000
v 0.137310 0.500000 0.027313
v 0.129343 0.500000 0.053576
v 0.116406 0.500000 0.077780
v 0.098995 0.500000 0.098995
v 0.077780 0.500000 0.116406
v 0.053576 0.500000 0.129343
v 0.027313 0.500000 0.137310
v -0.000000 0.500000 0.140000
v -0.027313 0.500000 0.137310
v -0.053576 0.500000 0.129343
v -0.077780 0.500000 0.116406
v -0.098995 0.500000 0.098995
v -0.116406 0.500000 0.077780
v -0.129343 0.500000 0.053576
v 0.000000 0.800000 0.000000
v -0.137310 0.500000 0.027313
v -0.140000 0.500000 -0.000000
v -0.137310 0.500000 -0.027313
v -0.129343 0.500000 -0.053576
v -0.116406 0.500000 -0.077780
v -0.098995 0.500000 -0.098995
v -0.077780 0.500000 -0.116406
v -0.053575 0.500000 -0.129343
v -0.027312 0.500000 -0.137310
vn 0.0889 0.4212 -0.9026
vn 0.2633 0.4212 -0.8679
vn 0.4275 0.4212 -0.7999
vn 0.5754 0.4212 -0.7011
vn 0.7011 0.4212 -0.5754
vn 0.7999 0.4212 -0.4275
vn 0.8679 0.4212 -0.2633
vn 0.9026 0.4212 -0.0889
vn 0.9026 0.4212 0.0889
vn 0.8679 0.4212 0.2633
vn 0.7999 0.4212 0.4275
vn 0.7011 0.4212 0.5754
vn 0.5754 0.4212 0.7011
vn 0.4275 0.4212 0.7999
vn 0.2633 0.4212 0.8679
vn 0.0889 0.4212 0.9026
vn -0.0889 0.4212 0.9026
vn -0.2633 0.4212 0.8679
vn -0.4275 0.4212 0.7999
vn -0.5754 0.4212 0.7011
vn -0.7011 0.4212 0.5754
vn -0.7999 0.4212 0.4275
vn -0.8679 0.4212 0.2633
vn -0.9026 0.4212 0.0889
vn -0.9026 0.4212 -0.0889
vn -0.8679 0.4212 -0.2633
vn -0.7999 0.4212 -0.4275
vn -0.7011 0.4212 -0.5754
vn -0.5754 0.4212 -0.7011
vn -0.4275 0.4212 -0.7999
vn -0.2633 0.4212 -0.8679
vn -0.0889 0.4212 -0.9026
vn 0.0000 -1.0000 0.0000
usemtl None
s off
f 34//34 57//34 35//34
f 35//35 57//35 36//35
f 36//36 57//36 37//36
f 37//37 57//37 38//37
f 38//38 57//38 39//38
f 39//39 57//39 40//39
f 40//40 57//40 41//40
f 41//41 57//41 42//41
f 42//42 57//42 43//42
f 43//43 57//43 44//43
f 44//44 57//44 45//44
f 45//45 57//45 46//45
f 46//46 57//46 47//46
f 47//47 57//47 48//47
f 48//48 57//48 49//48
f 49//49 57//49 50//49
f 50//50 57//50 51//50
f 51//51 57//51 52//51
f 52//52 57//52 53//52
f 53//53 57//53 54//53
f 54//54 57//54 55//54
f 55//55 57//55 56//55
f 56//56 57//56 58//56
f 58//57 57//57 59//57
f 59//58 57//58 60//58
f 60//59 57//59 61//59
f 61//60 57//60 62//60
f 62//61 57//61 63//61
f 63//62 57//62 64//62
f 64//63 57//63 65//63
f 65//64 57//64 66//64
f 66//65 57//65 34//65
f 34//66 35//66 36//66 37//66 38//66 39//66 40//66 41//66 42//66 43//66 44//66 45//66 46//66 47//66 48//66 49//66 50//66 51//66 52//66 53//66 54//66 55//66 56//66 58//66 59//66 60//66 61//66 62//66 63//66 64//66 65//66 66//66
o Cylinder_Cylinder.001
v 0.000000 -0.500000 -0.140000
v 0.000000 0.500000 -0.140000
v 0.043262 -0.500000 -0.133148
v 0.043262 0.500000 -0.133148
v 0.082290 -0.500000 -0.113263
v 0.082290 0.500000 -0.113263
v 0.113263 -0.500000 -0.082290
v 0.113263 0.500000 -0.082290
v 0.133148 -0.500000 -0.043262
v 0.133148 0.500000 -0.043262
v 0.140000 -0.500000 0.000000
v 0.140000 0.500000 0.000000
v 0.133148 -0.500000 0.043262
v 0.133148 0.500000 0.043262
v 0.113263 -0.500000 0.082290
v 0.113263 0.500000 0.082290
v 0.082290 -0.500000 0.113263
v 0.082290 0.500000 0.113263
v 0.043262 -0.500000 0.133148
v 0.043262 0.500000 0.133148
v -0.000000 -0.500000 0.140000
v -0.000000 0.500000 0.140000
v -0.043262 -0.500000 0.133148
v -0.043262 0.500000 0.133148
v -0.082290 -0.500000 0.113262
v -0.082290 0.500000 0.113262
v -0.113263 -0.500000 0.082290
v -0.113263 0.500000 0.082290
v -0.133148 -0.500000 0.043262
v -0.133148 0.500000 0.043262
v -0.140000 -0.500000 -0.000000
v -0.140000 0.500000 -0.000000
v -0.133148 -0.500000 -0.043263
v -0.133148 0.500000 -0.043263
v -0.113262 -0.500000 -0.082290
v -0.113262 0.500000 -0.082290
v -0.082290 -0.500000 -0.113263
v -0.082290 0.500000 -0.113263
v -0.043262 -0.500000 -0.133148
v -0.043262 0.500000 -0.133148
vn 0.1564 0.0000 -0.9877
vn 0.4540 0.0000 -0.8910
vn 0.7071 0.0000 -0.7071
vn 0.8910 0.0000 -0.4540
vn 0.9877 0.0000 -0.1564
vn 0.9877 0.0000 0.1564
vn 0.8910 0.0000 0.4540
vn 0.7071 0.0000 0.7071
vn 0.4540 0.0000 0.8910
vn 0.1564 0.0000 0.9877
vn -0.1564 0.0000 0.9877
vn -0.4540 0.0000 0.8910
vn -0.7071 0.0000 0.7071
vn -0.8910 0.0000 0.4540
vn -0.9877 0.0000 0.1564
vn -0.9877 0.0000 -0.1564
vn -0.8910 0.0000 -0.4540
vn -0.7071 0.0000 -0.7071
vn 0.0000 1.0000 -0.0000
vn -0.4540 0.0000 -0.8910
vn -0.1564 0.0000 -0.9877
vn 0.0000 -1.0000 0.0000
usemtl None
s off
f 67//67 68//67 70//67 69//67
f 69//68 70//68 72//68 71//68
f 71//69 72//69 74//69 73//69
f 73//70 74//70 76//70 75//70
f 75//71 76//71 78//71 77//71
f 77//72 78//72 80//72 79//72
f 79//73 80//73 82//73 81//73
f 81//74 82//74 84//74 83//74
f 83//75 84//75 86//75 85//75
f 85//76 86//76 88//76 87//76
f 87//77 88//77 90//77 89//77
f 89//78 90//78 92//78 91//78
f 91//79 92//79 94//79 93//79
f 93//80 94//80 96//80 95//80
f 95//81 96//81 98//81 97//81
f 97//82 98//82 100//82 99//82
f 99//83 100//83 102//83 101//83
f 101//84 102//84 104//84 103//84
f 70//85 68//85 106//85 104//85 102//85 100//85 98//85 96//85 94//85 92//85 90//85 88//85 86//85 84//85 82//85 80//85 78//85 76//85 74//85 72//85
f 103//86 104//86 106//86 105//86
f 105//87 106//87 68//87 67//87
f 67//88 69//88 71//88 73//88 75//88 77//88 79//88 81//88 83//88 85//88 87//88 89//88 91//88 93//88 95//88 97//88 99//88 101//88 103//88 105//88
